<?xml version="1.0" standalone="no"?>
<!DOCTYPE svg PUBLIC "-//W3C//DTD SVG 20010904//EN"
 "http://www.w3.org/TR/2001/REC-SVG-20010904/DTD/svg10.dtd">
<svg version="1.0" xmlns="http://www.w3.org/2000/svg"
 width="570.000000pt" height="76.000000pt" viewBox="0 0 570.000000 76.000000"
 preserveAspectRatio="xMidYMid meet">

<g transform="translate(0.000000,76.000000) scale(0.100000,-0.100000)"
fill="#000000" stroke="none">
<path d="M1315 641 c-116 -30 -184 -118 -193 -247 -9 -138 51 -250 156 -291
74 -28 182 -24 257 10 95 44 95 44 95 164 l0 103 -120 0 -120 0 0 -45 0 -45
65 0 65 0 0 -35 c0 -33 -4 -38 -42 -55 -135 -61 -248 16 -248 169 0 116 46
172 148 179 55 4 61 2 95 -28 21 -18 37 -39 37 -47 0 -9 6 -12 18 -9 9 3 34 8
55 12 33 5 37 9 31 28 -13 47 -54 94 -99 116 -50 24 -149 35 -200 21z"/>
<path d="M1889 637 c-120 -34 -191 -160 -175 -310 11 -106 55 -175 137 -217
82 -42 214 -33 286 19 109 79 136 283 54 413 -53 84 -189 127 -302 95z m169
-107 c70 -43 95 -181 50 -270 -31 -58 -76 -83 -146 -77 -96 7 -150 88 -139
209 6 69 35 119 80 142 45 22 115 20 155 -4z"/>
<path d="M2437 636 c-64 -23 -91 -51 -108 -110 -9 -32 -7 -47 6 -83 22 -58 66
-86 183 -117 101 -27 122 -38 122 -66 0 -50 -42 -80 -110 -80 -64 0 -119 39
-120 84 0 15 -5 17 -31 12 -17 -3 -42 -6 -54 -6 -22 0 -23 -2 -13 -37 29 -107
88 -147 218 -148 99 0 151 21 187 74 34 50 39 96 17 149 -25 60 -60 83 -180
116 -110 31 -124 39 -124 72 0 32 36 54 91 54 52 0 99 -29 99 -61 0 -16 7 -19
55 -19 49 0 55 2 55 20 0 26 -26 78 -53 108 -42 45 -164 65 -240 38z"/>
<path d="M2999 637 c-120 -34 -191 -160 -175 -310 11 -106 55 -175 137 -217
82 -42 214 -33 286 19 109 79 136 283 54 413 -53 84 -189 127 -302 95z m169
-107 c70 -43 95 -181 50 -270 -31 -58 -76 -83 -146 -77 -96 7 -150 88 -139
209 6 69 35 119 80 142 45 22 115 20 155 -4z"/>
<path d="M170 378 c-56 -145 -105 -269 -107 -276 -4 -10 8 -12 52 -10 l58 3
21 60 21 60 114 0 114 0 22 -60 23 -60 57 -3 c52 -3 57 -1 51 15 -4 10 -53
134 -109 275 l-102 258 -56 0 -56 0 -103 -262z m200 29 c18 -48 31 -90 28 -93
-3 -3 -37 -4 -75 -2 l-70 3 35 98 c19 54 38 94 42 90 4 -4 22 -47 40 -96z"/>
<path d="M670 365 l0 -275 190 0 190 0 0 45 0 45 -135 0 -135 0 0 230 0 230
-55 0 -55 0 0 -275z"/>
<path d="M3440 365 l0 -275 50 0 50 0 2 182 3 181 111 -179 110 -179 57 -3 57
-3 0 276 0 275 -50 0 -50 0 0 -180 c0 -99 -3 -180 -7 -180 -5 0 -57 81 -118
180 l-109 180 -53 0 -53 0 0 -275z"/>
<path d="M4000 365 l0 -275 190 0 190 0 0 45 0 45 -135 0 -135 0 0 230 0 230
-55 0 -55 0 0 -275z"/>
<path d="M4460 365 l0 -275 55 0 55 0 0 275 0 275 -55 0 -55 0 0 -275z"/>
<path d="M4680 365 l0 -275 50 0 50 0 0 176 c0 96 4 173 8 170 4 -2 55 -81
112 -175 l105 -171 53 0 52 0 0 275 0 275 -50 0 -50 0 -2 -182 -3 -181 -110
181 -110 181 -52 1 -53 0 0 -275z"/>
<path d="M5230 365 l0 -275 210 0 210 0 0 45 0 45 -155 0 -155 0 0 80 0 80
140 0 140 0 0 45 0 45 -140 0 -140 0 0 60 0 60 150 0 150 0 0 45 0 45 -205 0
-205 0 0 -275z"/>
</g>
</svg>
